PathFileType	4	(X/Y/Z)	SUBJ89_3_walk_RCNL2025.trc
DataRate	CameraRate	NumFrames	NumMarkers	Units	OrigDataRate	OrigDataStartFrame	OrigNumFrames
100	100	10	25	mm	100	142	227
Frame#	Time	R_Shoulder			L_Shoulder			C7			J_Notch			R_Elbow			L_Elbow			R_Wrist			L_Wrist			R_Asis			L_Asis			Sacral			Thoracic			Sternum			R_Thigh_Lateral			R_Knee_Lateral			R_Shank_Lateral			R_Ankle_Lateral			R_Heel			R_Toe			L_Thigh_Lateral			L_Knee_Lateral			L_Shank_Lateral			L_Ankle_Lateral			L_Heel			L_Toe		
		X1	Y1	Z1	X2	Y2	Z2	X3	Y3	Z3	X4	Y4	Z4	X5	Y5	Z5	X6	Y6	Z6	X7	Y7	Z7	X8	Y8	Z8	X9	Y9	Z9	X10	Y10	Z10	X11	Y11	Z11	X12	Y12	Z12	X13	Y13	Z13	X14	Y14	Z14	X15	Y15	Z15	X16	Y16	Z16	X17	Y17	Z17	X18	Y18	Z18	X19	Y19	Z19	X20	Y20	Z20	X21	Y21	Z21	X22	Y22	Z22	X23	Y23	Z23	X24	Y24	Z24	X25	Y25	Z25
142	1.41000000	989.784363	1367.506836	-17.989305	921.428406	1387.681274	-424.849182	898.680359	1471.185791	-207.847305	1009.323792	1339.781616	-225.093750	960.034485	1035.482544	41.646339	820.237854	1061.275391	-466.326019	1137.663269	834.775482	-10.051197	844.039215	797.358704	-504.867218	977.443359	948.721008	-93.333153	992.894714	945.934387	-333.726532	818.703613	1008.699097	-217.651291	805.033203	1296.489380	-202.514999	1033.918701	1190.517456	-237.639008	831.451111	580.162048	-46.308781	779.523193	470.817566	-108.537186	656.167725	277.840240	-70.619568	545.281799	103.519493	-152.785172	506.989655	111.172768	-196.877716	684.629456	31.138809	-173.153931	1068.027710	538.209167	-423.284241	1104.604492	475.885071	-348.562500	1153.353149	247.638092	-388.935425	1237.020508	64.424911	-320.672577	1199.519775	58.595524	-269.977631	1388.697510	92.305725	-307.207306
143	1.42000000	1005.635681	1366.275269	-19.291199	937.565796	1384.982300	-426.290894	914.621033	1469.547241	-209.545685	1025.387329	1338.097778	-226.269821	975.574951	1034.170044	40.451958	835.663574	1058.898438	-466.274292	1154.164429	834.118866	-10.535675	853.973480	794.769470	-505.445145	994.236633	946.264221	-93.523651	1009.759583	945.060486	-333.967377	835.463745	1006.922913	-217.594376	821.188538	1294.691650	-203.644882	1050.461060	1188.951172	-238.285690	847.564270	578.091919	-46.130680	794.896118	468.906158	-107.917114	666.216919	279.696075	-69.554276	549.427429	108.969872	-150.750458	511.338623	118.458183	-194.363174	684.183655	30.893759	-173.000793	1087.718628	539.201538	-422.206757	1122.980957	475.587280	-347.389252	1168.019165	246.610428	-387.101959	1246.433350	62.312767	-318.621185	1208.464355	57.650974	-268.152954	1398.514771	84.927582	-303.736603
144	1.43000000	1021.651062	1365.461426	-20.677830	953.823364	1382.596191	-427.790833	930.678101	1468.295898	-211.338257	1041.551636	1336.798462	-227.517395	990.867126	1033.284058	39.179684	851.254883	1056.807129	-466.267578	1170.001465	833.473297	-10.839445	864.623474	792.567871	-505.876511	1011.234070	944.007629	-93.850014	1026.637817	944.787537	-334.304352	852.315491	1005.553894	-217.334106	837.458557	1293.254272	-204.786194	1067.162476	1187.796265	-238.994324	864.796692	575.953796	-46.046162	811.640076	466.856903	-107.238045	677.347351	281.908539	-68.514297	554.726440	115.091888	-148.760834	517.058167	126.544212	-191.999329	683.821838	30.666212	-172.784470	1107.977783	541.104553	-421.090118	1141.579346	475.832245	-346.203674	1182.106445	246.020081	-385.446869	1253.783569	60.276207	-316.763123	1215.256348	56.972252	-266.575836	1406.354492	76.633995	-300.390503
145	1.44000000	1037.793945	1365.093506	-22.122990	970.187683	1380.568237	-429.323792	946.828857	1467.461670	-213.199783	1057.787842	1335.915039	-228.810486	1005.908386	1032.854858	37.846134	866.987915	1055.045288	-466.298523	1185.150635	832.856964	-10.964209	876.035004	790.768372	-506.161819	1028.352417	942.009094	-94.308151	1043.483276	945.121216	-334.721954	869.197693	1004.616272	-216.897003	853.806213	1292.212524	-205.920425	1083.982666	1187.079834	-239.742920	883.176392	573.780029	-46.034225	829.832031	464.690308	-106.487961	689.686401	284.501282	-67.515915	561.408142	121.886528	-146.888885	524.413086	135.379318	-189.903763	683.731262	30.521248	-172.461090	1128.552734	543.739136	-419.946045	1160.222290	476.568451	-345.001984	1195.775513	245.901718	-384.032227	1259.498657	58.482746	-315.140961	1220.332642	56.627193	-265.298889	1412.595337	68.012283	-297.248779
146	1.45000000	1054.019897	1365.188599	-23.596630	986.642517	1378.940674	-430.860565	963.042236	1467.060181	-215.098465	1074.063721	1335.466431	-230.118729	1020.693726	1032.903198	36.471199	882.843933	1053.651978	-466.357422	1199.593628	832.290497	-10.916752	888.244873	789.382263	-506.305527	1045.500488	940.326416	-94.889412	1060.250122	946.038574	-335.204651	886.048035	1004.117310	-216.326157	870.189026	1291.588135	-207.027893	1100.871094	1186.813599	-240.505829	902.693176	571.616211	-46.063828	849.510254	462.441895	-105.658081	703.366516	287.473816	-66.569305	569.690308	129.320877	-145.195648	533.639832	144.862000	-188.173447	684.181091	30.549963	-171.974716	1149.173584	546.886963	-418.785004	1178.707886	477.704712	-343.781525	1209.069946	246.229828	-382.876343	1263.947632	57.051094	-313.756409	1224.088745	56.637058	-264.322815	1417.560547	59.621628	-294.381958
147	1.46000000	1070.278076	1365.748779	-25.066734	1003.168640	1377.749512	-432.370331	979.279724	1467.092285	-216.998123	1090.343872	1335.456909	-231.409317	1035.214600	1033.436523	35.078354	898.809753	1052.658325	-466.433167	1213.319702	831.795471	-10.708536	901.279388	788.415649	-506.316010	1062.586182	939.013733	-95.579971	1076.897339	947.488037	-335.738373	902.807129	1004.047791	-215.678299	886.561401	1291.388672	-208.091187	1117.768311	1186.992188	-241.255280	923.290100	569.519714	-46.098969	870.665161	460.162781	-104.747063	718.513245	290.797150	-65.681602	579.759705	137.321213	-143.727692	544.923157	154.839996	-186.876663	685.524292	30.866425	-171.260620	1169.549805	550.300354	-417.619019	1196.816772	479.115326	-342.543365	1221.914429	246.922348	-381.955444	1267.425903	56.039566	-312.579254	1226.858521	56.975773	-263.606689	1421.510254	51.931297	-291.843048
148	1.47000000	1086.512695	1366.760132	-26.500946	1019.743713	1377.020752	-433.823181	995.498291	1467.544434	-218.860931	1106.591064	1335.875732	-232.649368	1049.458862	1034.446777	33.694313	914.877563	1052.083252	-466.515045	1226.328674	831.393097	-10.354654	915.153748	787.866852	-506.204575	1079.524536	938.118103	-96.359917	1093.391357	949.392395	-336.310455	919.422424	1004.385132	-215.018982	902.876648	1291.608521	-209.098587	1134.609741	1187.594604	-241.963516	944.858765	567.558411	-46.104687	893.235718	457.920471	-103.763405	735.230164	294.415619	-64.859955	591.755066	145.770721	-142.515793	558.376709	165.115662	-186.048325	688.187012	31.598543	-170.250946	1189.371826	553.720276	-416.465851	1214.324341	480.653320	-341.295258	1234.139160	247.858337	-381.215759	1270.156372	55.447811	-311.562439	1228.908081	57.580555	-263.085632	1424.644531	45.277607	-289.661438
149	1.48000000	1102.665283	1368.192383	-27.867817	1036.342285	1376.767822	-435.192657	1011.653198	1468.393066	-220.650543	1122.767090	1336.699829	-233.808243	1063.411133	1035.909058	32.347725	931.044739	1051.931030	-466.594269	1238.632507	831.102722	-9.872199	929.871918	787.724518	-505.984406	1096.243530	937.678101	-97.202431	1109.708984	951.655701	-336.908752	935.850830	1005.098145	-214.415909	919.090271	1292.232300	-210.046616	1151.329346	1188.587036	-242.605392	967.241699	565.808838	-46.052517	917.111084	455.799133	-102.725143	753.582520	298.255493	-64.113548	605.755615	154.512650	-141.574921	574.031189	175.456589	-185.689056	692.642944	32.872303	-168.883118	1208.324463	556.901978	-415.351715	1231.015625	482.169128	-340.054138	1245.526733	248.903030	-380.592712	1272.299927	55.228317	-310.657745	1230.439575	58.368530	-262.690765	1427.114746	39.845692	-287.841370
150	1.49000000	1118.677002	1370.000610	-29.137772	1052.936279	1376.989746	-436.457642	1027.702759	1469.608398	-222.335083	1138.833740	1337.897095	-234.859818	1077.054321	1037.782837	31.067225	947.313782	1052.189697	-466.665131	1250.255920	830.940430	-9.278317	945.427979	787.967041	-505.669205	1112.689697	937.722778	-98.074104	1125.836670	954.172363	-337.520020	952.060669	1006.153015	-213.931717	935.162231	1293.238525	-210.940506	1167.864502	1189.928345	-243.161041	990.242981	564.353943	-45.924129	942.139038	453.898315	-101.656578	773.583801	302.238586	-63.453659	621.779175	163.358643	-140.905121	591.834106	185.610413	-185.767761	699.374084	34.790489	-167.110077	1226.113647	559.643311	-414.311188	1246.703247	483.530304	-338.846558	1255.866089	249.932083	-380.030365	1273.971924	55.303043	-309.827972	1231.600098	59.253746	-262.364807	1429.036499	35.675896	-286.365448
151	1.50000000	1134.491455	1372.130127	-30.284077	1069.495117	1377.672852	-437.603546	1043.611206	1471.159302	-223.889450	1154.755249	1339.431396	-235.784470	1090.371704	1040.015259	29.879097	963.691345	1052.832397	-466.725830	1261.235474	830.918915	-8.588327	961.808044	788.564117	-505.271973	1128.830444	938.271118	-98.936882	1141.769653	956.837463	-338.129150	968.032166	1007.517517	-213.616867	951.059937	1294.602539	-211.792847	1184.161133	1191.575562	-243.617889	1013.646912	563.279785	-45.712242	968.138428	452.329681	-100.582787	795.187439	306.296509	-62.891521	639.788696	172.099884	-140.492447	611.660583	195.321243	-186.226791	708.822021	37.409157	-164.911591	1242.503540	561.808899	-413.382294	1261.243530	484.637543	-337.706512	1265.000244	250.849106	-379.494873	1275.256714	55.581070	-309.053101	1232.494019	60.160656	-262.071136	1430.501465	32.689484	-285.201447
